<?xml version="1.0" encoding="UTF-8"?>
<svg xmlns="http://www.w3.org/2000/svg" xmlns:xlink="http://www.w3.org/1999/xlink" width="10pt" height="10pt" viewBox="0 0 10 10" version="1.1">
<g id="surface1">
<path style=" stroke:none;fill-rule:nonzero;fill:rgb(0%,0%,0%);fill-opacity:1;" d="M 5.230469 7.570312 L 9.90625 2.894531 C 9.96875 2.832031 10 2.746094 10 2.664062 C 10 2.582031 9.96875 2.496094 9.90625 2.433594 L 9.898438 2.429688 C 9.839844 2.367188 9.757812 2.335938 9.671875 2.335938 L 7.402344 2.335938 C 7.316406 2.335938 7.234375 2.367188 7.171875 2.429688 L 5 4.601562 L 2.828125 2.429688 C 2.769531 2.367188 2.683594 2.335938 2.601562 2.335938 L 0.332031 2.335938 C 0.242188 2.335938 0.164062 2.367188 0.101562 2.429688 L 0.09375 2.433594 C 0.03125 2.496094 0 2.578125 0 2.664062 C 0 2.75 0.03125 2.832031 0.09375 2.894531 L 4.769531 7.570312 C 4.898438 7.695312 5.101562 7.695312 5.230469 7.570312 Z M 5.230469 7.570312 "/>
</g>
</svg>
