<?xml version="1.0" encoding="UTF-8"?>
<svg xmlns="http://www.w3.org/2000/svg" xmlns:xlink="http://www.w3.org/1999/xlink" width="40pt" height="40pt" viewBox="0 0 40 40" version="1.1">
<g id="surface1">
<path style=" stroke:none;fill-rule:nonzero;fill:rgb(0%,0%,0%);fill-opacity:1;" d="M 31.613281 24.777344 C 30.792969 23.925781 29.804688 23.46875 28.757812 23.46875 C 27.722656 23.46875 26.722656 23.917969 25.871094 24.769531 L 23.203125 27.429688 C 22.984375 27.3125 22.765625 27.203125 22.554688 27.089844 C 22.25 26.941406 21.964844 26.796875 21.71875 26.644531 C 19.21875 25.058594 16.949219 22.988281 14.769531 20.3125 C 13.714844 18.980469 13.003906 17.855469 12.492188 16.714844 C 13.183594 16.082031 13.824219 15.425781 14.449219 14.792969 C 14.6875 14.554688 14.921875 14.308594 15.160156 14.074219 C 16.929688 12.300781 16.929688 10.003906 15.160156 8.230469 L 12.855469 5.925781 C 12.59375 5.664062 12.320312 5.394531 12.070312 5.125 C 11.5625 4.601562 11.03125 4.0625 10.480469 3.554688 C 9.664062 2.746094 8.683594 2.3125 7.652344 2.3125 C 6.625 2.3125 5.628906 2.746094 4.78125 3.554688 C 4.773438 3.5625 4.773438 3.5625 4.765625 3.570312 L 1.894531 6.46875 C 0.816406 7.546875 0.199219 8.863281 0.0625 10.394531 C -0.140625 12.859375 0.585938 15.15625 1.144531 16.65625 C 2.511719 20.347656 4.554688 23.765625 7.601562 27.429688 C 11.300781 31.84375 15.75 35.332031 20.832031 37.789062 C 22.773438 38.707031 25.367188 39.796875 28.261719 39.984375 C 28.4375 39.992188 28.625 40 28.792969 40 C 30.742188 40 32.378906 39.300781 33.664062 37.90625 C 33.671875 37.890625 33.6875 37.882812 33.699219 37.863281 C 34.136719 37.332031 34.644531 36.851562 35.175781 36.335938 C 35.539062 35.988281 35.910156 35.625 36.273438 35.246094 C 37.109375 34.378906 37.546875 33.363281 37.546875 32.324219 C 37.546875 31.277344 37.101562 30.273438 36.246094 29.429688 Z M 34.636719 33.667969 C 34.625 33.667969 34.625 33.675781 34.636719 33.667969 C 34.304688 34.023438 33.96875 34.34375 33.605469 34.699219 C 33.054688 35.222656 32.5 35.769531 31.976562 36.386719 C 31.121094 37.296875 30.117188 37.730469 28.800781 37.730469 C 28.675781 37.730469 28.539062 37.730469 28.414062 37.71875 C 25.90625 37.558594 23.574219 36.582031 21.828125 35.746094 C 17.050781 33.433594 12.855469 30.148438 9.367188 25.984375 C 6.488281 22.515625 4.5625 19.308594 3.289062 15.863281 C 2.503906 13.761719 2.214844 12.125 2.34375 10.578125 C 2.425781 9.589844 2.808594 8.773438 3.507812 8.070312 L 6.386719 5.191406 C 6.800781 4.804688 7.238281 4.59375 7.671875 4.59375 C 8.203125 4.59375 8.632812 4.914062 8.902344 5.183594 C 8.910156 5.191406 8.917969 5.199219 8.929688 5.210938 C 9.441406 5.691406 9.933594 6.1875 10.449219 6.71875 C 10.710938 6.992188 10.980469 7.261719 11.25 7.539062 L 13.554688 9.84375 C 14.449219 10.738281 14.449219 11.566406 13.554688 12.460938 C 13.308594 12.707031 13.074219 12.949219 12.828125 13.1875 C 12.121094 13.914062 11.445312 14.589844 10.710938 15.246094 C 10.691406 15.265625 10.675781 15.273438 10.667969 15.289062 C 9.941406 16.015625 10.078125 16.726562 10.226562 17.207031 C 10.238281 17.230469 10.246094 17.257812 10.253906 17.28125 C 10.851562 18.734375 11.699219 20.101562 12.980469 21.730469 L 12.988281 21.738281 C 15.320312 24.609375 17.777344 26.847656 20.484375 28.5625 C 20.832031 28.78125 21.1875 28.957031 21.523438 29.125 C 21.828125 29.277344 22.113281 29.421875 22.359375 29.574219 C 22.394531 29.589844 22.425781 29.617188 22.460938 29.632812 C 22.75 29.777344 23.019531 29.84375 23.296875 29.84375 C 23.996094 29.84375 24.4375 29.40625 24.582031 29.261719 L 27.46875 26.375 C 27.753906 26.085938 28.210938 25.742188 28.742188 25.742188 C 29.265625 25.742188 29.695312 26.070312 29.957031 26.355469 C 29.964844 26.367188 29.964844 26.367188 29.976562 26.375 L 34.625 31.027344 C 35.496094 31.886719 35.496094 32.773438 34.636719 33.667969 Z M 34.636719 33.667969 "/>
<path style=" stroke:none;fill-rule:nonzero;fill:rgb(0%,0%,0%);fill-opacity:1;" d="M 21.617188 9.515625 C 23.828125 9.886719 25.839844 10.933594 27.441406 12.539062 C 29.046875 14.140625 30.085938 16.152344 30.464844 18.363281 C 30.558594 18.917969 31.039062 19.308594 31.585938 19.308594 C 31.65625 19.308594 31.714844 19.300781 31.78125 19.292969 C 32.40625 19.191406 32.820312 18.597656 32.71875 17.972656 C 32.261719 15.296875 30.996094 12.859375 29.0625 10.925781 C 27.128906 8.992188 24.691406 7.726562 22.015625 7.269531 C 21.390625 7.167969 20.804688 7.582031 20.695312 8.199219 C 20.585938 8.8125 20.992188 9.414062 21.617188 9.515625 Z M 21.617188 9.515625 "/>
<path style=" stroke:none;fill-rule:nonzero;fill:rgb(0%,0%,0%);fill-opacity:1;" d="M 39.953125 17.644531 C 39.203125 13.238281 37.125 9.226562 33.933594 6.035156 C 30.742188 2.84375 26.734375 0.769531 22.324219 0.015625 C 21.710938 -0.09375 21.128906 0.328125 21.015625 0.945312 C 20.917969 1.570312 21.328125 2.152344 21.953125 2.261719 C 25.890625 2.929688 29.476562 4.796875 32.332031 7.640625 C 35.183594 10.496094 37.039062 14.082031 37.707031 18.015625 C 37.800781 18.574219 38.28125 18.960938 38.832031 18.960938 C 38.898438 18.960938 38.957031 18.953125 39.023438 18.945312 C 39.640625 18.851562 40.0625 18.261719 39.953125 17.644531 Z M 39.953125 17.644531 "/>
</g>
</svg>
