<?xml version="1.0" encoding="UTF-8"?>
<svg xmlns="http://www.w3.org/2000/svg" xmlns:xlink="http://www.w3.org/1999/xlink" width="40pt" height="40pt" viewBox="0 0 40 40" version="1.1">
<g id="surface1">
<path style=" stroke:none;fill-rule:nonzero;fill:rgb(0%,0%,0%);fill-opacity:1;" d="M 20 16.023438 C 17.808594 16.023438 16.023438 17.808594 16.023438 20 C 16.023438 22.191406 17.808594 23.976562 20 23.976562 C 22.191406 23.976562 23.976562 22.191406 23.976562 20 C 23.976562 17.808594 22.191406 16.023438 20 16.023438 Z M 20 16.023438 C 17.808594 16.023438 16.023438 17.808594 16.023438 20 C 16.023438 22.191406 17.808594 23.976562 20 23.976562 C 22.191406 23.976562 23.976562 22.191406 23.976562 20 C 23.976562 17.808594 22.191406 16.023438 20 16.023438 Z M 26.625 9.539062 L 13.375 9.539062 C 11.257812 9.539062 9.539062 11.257812 9.539062 13.375 L 9.539062 26.625 C 9.539062 28.742188 11.257812 30.460938 13.375 30.460938 L 26.625 30.460938 C 28.742188 30.460938 30.460938 28.742188 30.460938 26.625 L 30.460938 13.375 C 30.460938 11.257812 28.742188 9.539062 26.625 9.539062 Z M 20 26.890625 C 16.203125 26.890625 13.109375 23.796875 13.109375 20 C 13.109375 16.203125 16.203125 13.109375 20 13.109375 C 23.796875 13.109375 26.890625 16.203125 26.890625 20 C 26.890625 23.796875 23.796875 26.890625 20 26.890625 Z M 27.109375 14.535156 C 26.210938 14.535156 25.480469 13.804688 25.480469 12.90625 C 25.480469 12.007812 26.210938 11.277344 27.109375 11.277344 C 28.007812 11.277344 28.738281 12.007812 28.738281 12.90625 C 28.738281 13.804688 28.007812 14.535156 27.109375 14.535156 Z M 20 16.023438 C 17.808594 16.023438 16.023438 17.808594 16.023438 20 C 16.023438 22.191406 17.808594 23.976562 20 23.976562 C 22.191406 23.976562 23.976562 22.191406 23.976562 20 C 23.976562 17.808594 22.191406 16.023438 20 16.023438 Z M 26.625 9.539062 L 13.375 9.539062 C 11.257812 9.539062 9.539062 11.257812 9.539062 13.375 L 9.539062 26.625 C 9.539062 28.742188 11.257812 30.460938 13.375 30.460938 L 26.625 30.460938 C 28.742188 30.460938 30.460938 28.742188 30.460938 26.625 L 30.460938 13.375 C 30.460938 11.257812 28.742188 9.539062 26.625 9.539062 Z M 20 26.890625 C 16.203125 26.890625 13.109375 23.796875 13.109375 20 C 13.109375 16.203125 16.203125 13.109375 20 13.109375 C 23.796875 13.109375 26.890625 16.203125 26.890625 20 C 26.890625 23.796875 23.796875 26.890625 20 26.890625 Z M 27.109375 14.535156 C 26.210938 14.535156 25.480469 13.804688 25.480469 12.90625 C 25.480469 12.007812 26.210938 11.277344 27.109375 11.277344 C 28.007812 11.277344 28.738281 12.007812 28.738281 12.90625 C 28.738281 13.804688 28.007812 14.535156 27.109375 14.535156 Z M 20 16.023438 C 17.808594 16.023438 16.023438 17.808594 16.023438 20 C 16.023438 22.191406 17.808594 23.976562 20 23.976562 C 22.191406 23.976562 23.976562 22.191406 23.976562 20 C 23.976562 17.808594 22.191406 16.023438 20 16.023438 Z M 0 0 L 0 40 L 40 40 L 40 0 Z M 33.375 26.625 C 33.375 30.347656 30.347656 33.375 26.625 33.375 L 13.375 33.375 C 9.652344 33.375 6.625 30.347656 6.625 26.625 L 6.625 13.375 C 6.625 9.652344 9.652344 6.625 13.375 6.625 L 26.625 6.625 C 30.347656 6.625 33.375 9.652344 33.375 13.375 Z M 26.625 9.539062 L 13.375 9.539062 C 11.257812 9.539062 9.539062 11.257812 9.539062 13.375 L 9.539062 26.625 C 9.539062 28.742188 11.257812 30.460938 13.375 30.460938 L 26.625 30.460938 C 28.742188 30.460938 30.460938 28.742188 30.460938 26.625 L 30.460938 13.375 C 30.460938 11.257812 28.742188 9.539062 26.625 9.539062 Z M 20 26.890625 C 16.203125 26.890625 13.109375 23.796875 13.109375 20 C 13.109375 16.203125 16.203125 13.109375 20 13.109375 C 23.796875 13.109375 26.890625 16.203125 26.890625 20 C 26.890625 23.796875 23.796875 26.890625 20 26.890625 Z M 27.109375 14.535156 C 26.210938 14.535156 25.480469 13.804688 25.480469 12.90625 C 25.480469 12.007812 26.210938 11.277344 27.109375 11.277344 C 28.007812 11.277344 28.738281 12.007812 28.738281 12.90625 C 28.738281 13.804688 28.007812 14.535156 27.109375 14.535156 Z M 20 16.023438 C 17.808594 16.023438 16.023438 17.808594 16.023438 20 C 16.023438 22.191406 17.808594 23.976562 20 23.976562 C 22.191406 23.976562 23.976562 22.191406 23.976562 20 C 23.976562 17.808594 22.191406 16.023438 20 16.023438 Z M 20 16.023438 C 17.808594 16.023438 16.023438 17.808594 16.023438 20 C 16.023438 22.191406 17.808594 23.976562 20 23.976562 C 22.191406 23.976562 23.976562 22.191406 23.976562 20 C 23.976562 17.808594 22.191406 16.023438 20 16.023438 Z M 20 16.023438 C 17.808594 16.023438 16.023438 17.808594 16.023438 20 C 16.023438 22.191406 17.808594 23.976562 20 23.976562 C 22.191406 23.976562 23.976562 22.191406 23.976562 20 C 23.976562 17.808594 22.191406 16.023438 20 16.023438 Z M 26.625 9.539062 L 13.375 9.539062 C 11.257812 9.539062 9.539062 11.257812 9.539062 13.375 L 9.539062 26.625 C 9.539062 28.742188 11.257812 30.460938 13.375 30.460938 L 26.625 30.460938 C 28.742188 30.460938 30.460938 28.742188 30.460938 26.625 L 30.460938 13.375 C 30.460938 11.257812 28.742188 9.539062 26.625 9.539062 Z M 20 26.890625 C 16.203125 26.890625 13.109375 23.796875 13.109375 20 C 13.109375 16.203125 16.203125 13.109375 20 13.109375 C 23.796875 13.109375 26.890625 16.203125 26.890625 20 C 26.890625 23.796875 23.796875 26.890625 20 26.890625 Z M 27.109375 14.535156 C 26.210938 14.535156 25.480469 13.804688 25.480469 12.90625 C 25.480469 12.007812 26.210938 11.277344 27.109375 11.277344 C 28.007812 11.277344 28.738281 12.007812 28.738281 12.90625 C 28.738281 13.804688 28.007812 14.535156 27.109375 14.535156 Z M 20 16.023438 C 17.808594 16.023438 16.023438 17.808594 16.023438 20 C 16.023438 22.191406 17.808594 23.976562 20 23.976562 C 22.191406 23.976562 23.976562 22.191406 23.976562 20 C 23.976562 17.808594 22.191406 16.023438 20 16.023438 Z M 20 16.023438 C 17.808594 16.023438 16.023438 17.808594 16.023438 20 C 16.023438 22.191406 17.808594 23.976562 20 23.976562 C 22.191406 23.976562 23.976562 22.191406 23.976562 20 C 23.976562 17.808594 22.191406 16.023438 20 16.023438 Z M 20 16.023438 C 17.808594 16.023438 16.023438 17.808594 16.023438 20 C 16.023438 22.191406 17.808594 23.976562 20 23.976562 C 22.191406 23.976562 23.976562 22.191406 23.976562 20 C 23.976562 17.808594 22.191406 16.023438 20 16.023438 Z M 26.625 9.539062 L 13.375 9.539062 C 11.257812 9.539062 9.539062 11.257812 9.539062 13.375 L 9.539062 26.625 C 9.539062 28.742188 11.257812 30.460938 13.375 30.460938 L 26.625 30.460938 C 28.742188 30.460938 30.460938 28.742188 30.460938 26.625 L 30.460938 13.375 C 30.460938 11.257812 28.742188 9.539062 26.625 9.539062 Z M 20 26.890625 C 16.203125 26.890625 13.109375 23.796875 13.109375 20 C 13.109375 16.203125 16.203125 13.109375 20 13.109375 C 23.796875 13.109375 26.890625 16.203125 26.890625 20 C 26.890625 23.796875 23.796875 26.890625 20 26.890625 Z M 27.109375 14.535156 C 26.210938 14.535156 25.480469 13.804688 25.480469 12.90625 C 25.480469 12.007812 26.210938 11.277344 27.109375 11.277344 C 28.007812 11.277344 28.738281 12.007812 28.738281 12.90625 C 28.738281 13.804688 28.007812 14.535156 27.109375 14.535156 Z M 20 16.023438 C 17.808594 16.023438 16.023438 17.808594 16.023438 20 C 16.023438 22.191406 17.808594 23.976562 20 23.976562 C 22.191406 23.976562 23.976562 22.191406 23.976562 20 C 23.976562 17.808594 22.191406 16.023438 20 16.023438 Z M 20 16.023438 "/>
</g>
</svg>
