<?xml version="1.0" encoding="UTF-8"?>
<svg xmlns="http://www.w3.org/2000/svg" xmlns:xlink="http://www.w3.org/1999/xlink" width="40pt" height="40pt" viewBox="0 0 40 40" version="1.1">
<g id="surface1">
<path style=" stroke:none;fill-rule:nonzero;fill:rgb(0%,0%,0%);fill-opacity:1;" d="M 0 0 L 0 40 L 40 40 L 40 0 Z M 33.773438 25.363281 C 30.640625 33.359375 22.238281 36.1875 15.9375 34.191406 C 16.40625 33.03125 16.945312 31.882812 17.335938 30.6875 C 17.730469 29.488281 17.980469 28.242188 18.277344 27.085938 C 18.53125 27.300781 18.789062 27.527344 19.054688 27.738281 C 20.449219 28.839844 22.023438 28.945312 23.671875 28.546875 C 25.425781 28.128906 26.8125 27.132812 27.839844 25.671875 C 29.574219 23.199219 30.1875 20.402344 29.765625 17.460938 C 29.332031 14.417969 27.53125 12.214844 24.707031 11.105469 C 20.453125 9.4375 16.417969 10 12.921875 13.0625 C 10.234375 15.414062 9.332031 19.40625 10.625 22.515625 C 11.070312 23.59375 11.78125 24.4375 12.851562 24.945312 C 13.394531 25.203125 13.625 25.097656 13.78125 24.53125 C 13.792969 24.488281 13.808594 24.449219 13.824219 24.40625 C 14.125 23.613281 14.054688 22.960938 13.519531 22.195312 C 12.542969 20.800781 12.714844 19.183594 13.1875 17.636719 C 14.082031 14.699219 16.703125 12.738281 19.78125 12.710938 C 20.605469 12.703125 21.453125 12.773438 22.25 12.96875 C 24.625 13.546875 26.15625 15.382812 26.3125 17.816406 C 26.433594 19.769531 26.128906 21.667969 25.28125 23.449219 C 24.859375 24.332031 24.304688 25.117188 23.480469 25.671875 C 22.707031 26.195312 21.855469 26.40625 20.9375 26.164062 C 19.667969 25.832031 18.949219 24.675781 19.269531 23.40625 C 19.601562 22.09375 20.03125 20.800781 20.359375 19.484375 C 20.496094 18.929688 20.570312 18.324219 20.511719 17.757812 C 20.359375 16.210938 18.898438 15.492188 17.535156 16.246094 C 16.578125 16.773438 16.117188 17.65625 15.90625 18.679688 C 15.683594 19.730469 15.792969 20.769531 16.132812 21.789062 C 16.203125 21.992188 16.210938 22.246094 16.164062 22.457031 C 15.542969 25.160156 14.882812 27.855469 14.292969 30.566406 C 14.121094 31.355469 14.15625 32.191406 14.097656 33.007812 C 14.085938 33.164062 14.097656 33.320312 14.097656 33.527344 C 7.566406 30.800781 3.320312 23.027344 6.019531 15.128906 C 8.695312 7.320312 17.34375 3.230469 25.128906 6.121094 C 32.9375 9.019531 36.800781 17.636719 33.773438 25.363281 Z M 33.773438 25.363281 "/>
</g>
</svg>
