<?xml version="1.0" encoding="UTF-8"?>
<svg xmlns="http://www.w3.org/2000/svg" xmlns:xlink="http://www.w3.org/1999/xlink" width="50pt" height="50pt" viewBox="0 0 50 50" version="1.1">
<g id="surface1">
<path style=" stroke:none;fill-rule:nonzero;fill:rgb(0%,0%,0%);fill-opacity:1;" d="M 27.472656 31 C 26.792969 29.507812 25.9375 28.714844 25 28.714844 C 24.0625 28.714844 23.207031 29.507812 22.527344 31 C 22.042969 32.070312 21.714844 33.359375 21.714844 34.214844 C 21.714844 35.382812 22.332031 35.960938 22.847656 36.238281 C 23.367188 36.519531 24.050781 36.648438 25 36.648438 C 25.949219 36.648438 26.632812 36.519531 27.152344 36.238281 C 27.667969 35.960938 28.285156 35.382812 28.285156 34.214844 C 28.285156 33.359375 27.957031 32.070312 27.472656 31 Z M 25 35.183594 C 23.179688 35.183594 23.179688 34.648438 23.179688 34.214844 C 23.179688 33.664062 23.414062 32.589844 23.859375 31.605469 C 24.335938 30.5625 24.804688 30.179688 25 30.179688 C 25.195312 30.179688 25.664062 30.5625 26.140625 31.605469 C 26.585938 32.589844 26.820312 33.664062 26.820312 34.214844 C 26.820312 34.648438 26.820312 35.183594 25 35.183594 Z M 25 35.183594 "/>
<path style=" stroke:none;fill-rule:nonzero;fill:rgb(0%,0%,0%);fill-opacity:1;" d="M 23.992188 24.84375 C 23.992188 23.675781 23.078125 22.71875 21.925781 22.652344 C 21.675781 21.714844 20.820312 21.019531 19.804688 21.019531 C 19.472656 21.019531 19.148438 21.09375 18.855469 21.234375 C 18.453125 20.851562 17.914062 20.628906 17.335938 20.628906 C 16.804688 20.628906 16.300781 20.824219 15.910156 21.15625 C 15.582031 20.972656 15.207031 20.875 14.828125 20.882812 C 13.988281 20.894531 13.492188 21.246094 13.222656 21.539062 C 12.984375 21.792969 12.84375 22.082031 12.761719 22.347656 C 11.601562 22.410156 10.679688 23.371094 10.679688 24.542969 C 10.679688 24.722656 10.703125 24.902344 10.746094 25.074219 C 10.175781 25.476562 9.8125 26.140625 9.8125 26.871094 C 9.8125 27.441406 10.035156 27.980469 10.414062 28.378906 C 10.296875 28.648438 10.234375 28.941406 10.230469 29.246094 C 10.222656 30.039062 10.542969 30.527344 10.816406 30.800781 C 11.167969 31.152344 11.597656 31.316406 11.964844 31.390625 C 12.246094 32.273438 13.078125 32.917969 14.054688 32.917969 C 14.261719 32.917969 14.460938 32.886719 14.65625 32.832031 C 15.050781 33.183594 15.5625 33.378906 16.105469 33.378906 C 16.765625 33.378906 17.378906 33.078125 17.789062 32.589844 C 18.027344 32.671875 18.277344 32.707031 18.527344 32.691406 C 19.390625 32.636719 19.890625 32.265625 20.152344 31.964844 C 20.367188 31.722656 20.496094 31.457031 20.570312 31.214844 C 21.664062 31.09375 22.519531 30.171875 22.527344 29.046875 C 22.78125 28.960938 23.054688 28.820312 23.300781 28.601562 C 23.730469 28.214844 23.96875 27.671875 23.992188 27.027344 C 24.003906 26.640625 23.90625 26.257812 23.710938 25.917969 C 23.890625 25.59375 23.992188 25.222656 23.992188 24.84375 Z M 19.246094 22.742188 C 19.386719 22.578125 19.589844 22.484375 19.804688 22.484375 C 20.207031 22.484375 20.617188 22.765625 20.523438 23.351562 C 20.511719 23.425781 20.511719 23.5 20.519531 23.570312 C 20.015625 23.304688 19.421875 23.113281 18.796875 22.992188 C 18.96875 22.964844 19.128906 22.878906 19.246094 22.742188 Z M 16.675781 22.515625 C 16.796875 22.257812 17.054688 22.09375 17.335938 22.09375 C 17.632812 22.09375 17.898438 22.273438 18.011719 22.546875 C 18.078125 22.710938 18.203125 22.839844 18.355469 22.917969 C 17.925781 22.855469 17.488281 22.824219 17.058594 22.824219 C 16.816406 22.824219 16.574219 22.835938 16.339844 22.855469 C 16.484375 22.785156 16.601562 22.664062 16.675781 22.515625 Z M 14.296875 22.53125 C 14.339844 22.484375 14.464844 22.351562 14.851562 22.347656 C 15.074219 22.339844 15.285156 22.453125 15.425781 22.640625 C 15.527344 22.777344 15.675781 22.871094 15.835938 22.910156 C 15.441406 22.96875 15.078125 23.054688 14.757812 23.167969 C 14.496094 23.261719 14.253906 23.375 14.027344 23.511719 C 14.089844 23.394531 14.117188 23.261719 14.109375 23.128906 C 14.105469 23.023438 14.128906 22.710938 14.296875 22.53125 Z M 12.875 23.8125 C 12.960938 23.8125 13.160156 23.929688 13.484375 23.894531 C 13.035156 24.269531 12.675781 24.734375 12.425781 25.253906 C 12.402344 25.160156 12.359375 25.066406 12.296875 24.988281 C 12.226562 24.898438 12.144531 24.746094 12.144531 24.542969 C 12.144531 24.140625 12.472656 23.8125 12.875 23.8125 Z M 16.808594 31.386719 C 16.71875 31.695312 16.429688 31.914062 16.105469 31.914062 C 15.847656 31.914062 15.617188 31.78125 15.480469 31.5625 C 15.378906 31.394531 15.207031 31.292969 15.015625 31.230469 C 14.785156 31.152344 14.574219 31.253906 14.457031 31.332031 C 14.335938 31.410156 14.199219 31.453125 14.054688 31.453125 C 13.652344 31.453125 13.324219 31.125 13.324219 30.71875 C 13.324219 30.523438 13.246094 30.335938 13.105469 30.199219 C 12.964844 30.0625 12.769531 29.984375 12.570312 29.988281 C 12.390625 29.988281 12.03125 29.945312 11.851562 29.761719 C 11.8125 29.722656 11.691406 29.605469 11.695312 29.261719 C 11.699219 29.058594 11.777344 28.867188 11.917969 28.730469 C 12.09375 28.5625 12.171875 28.316406 12.128906 28.078125 C 12.085938 27.839844 11.929688 27.636719 11.707031 27.539062 C 11.445312 27.417969 11.277344 27.15625 11.277344 26.871094 C 11.277344 26.523438 11.523438 26.222656 11.863281 26.152344 C 11.964844 26.132812 12.054688 26.089844 12.136719 26.03125 C 11.941406 26.800781 11.960938 27.628906 12.246094 28.433594 C 12.84375 30.125 14.433594 31.179688 16.132812 31.179688 C 16.414062 31.179688 16.695312 31.152344 16.976562 31.09375 C 16.898438 31.175781 16.839844 31.277344 16.808594 31.386719 Z M 17.019531 29.5625 C 16.734375 29.664062 16.433594 29.714844 16.132812 29.714844 C 15.007812 29.714844 14.003906 29.003906 13.625 27.945312 C 13.136719 26.5625 13.863281 25.039062 15.246094 24.550781 C 15.710938 24.386719 16.371094 24.289062 17.058594 24.289062 C 18.929688 24.289062 20.3125 24.921875 20.519531 25.503906 C 20.636719 25.835938 20.484375 26.574219 19.664062 27.566406 C 18.925781 28.460938 17.863281 29.265625 17.019531 29.5625 Z M 20.332031 29.761719 C 20.269531 29.761719 20.203125 29.753906 20.136719 29.734375 C 19.910156 29.671875 19.667969 29.722656 19.488281 29.867188 C 19.304688 30.011719 19.199219 30.234375 19.210938 30.46875 C 19.210938 30.476562 19.226562 30.800781 19.054688 30.996094 C 18.933594 31.132812 18.726562 31.210938 18.433594 31.230469 C 18.25 31.242188 18.078125 31.117188 17.996094 31.042969 C 17.902344 30.960938 17.792969 30.90625 17.679688 30.878906 C 18.789062 30.4375 20.085938 29.429688 20.972656 28.273438 C 20.933594 28.429688 20.941406 28.59375 21.003906 28.746094 C 21.042969 28.835938 21.0625 28.933594 21.0625 29.03125 C 21.0625 29.433594 20.734375 29.761719 20.332031 29.761719 Z M 21.699219 27.730469 C 21.542969 27.726562 21.394531 27.773438 21.273438 27.855469 C 21.894531 26.902344 22.210938 25.886719 21.898438 25.015625 C 21.792969 24.710938 21.613281 24.441406 21.382812 24.203125 C 21.429688 24.195312 21.699219 24.113281 21.796875 24.113281 C 22.199219 24.113281 22.527344 24.441406 22.527344 24.84375 C 22.527344 25.050781 22.441406 25.242188 22.289062 25.382812 C 22.136719 25.523438 22.050781 25.71875 22.050781 25.925781 C 22.050781 26.128906 22.136719 26.324219 22.289062 26.464844 C 22.363281 26.53125 22.535156 26.71875 22.527344 26.980469 C 22.503906 27.648438 21.945312 27.726562 21.699219 27.730469 Z M 21.699219 27.730469 "/>
<path style=" stroke:none;fill-rule:nonzero;fill:rgb(0%,0%,0%);fill-opacity:1;" d="M 40.191406 26.871094 C 40.191406 26.140625 39.824219 25.476562 39.257812 25.074219 C 39.300781 24.902344 39.320312 24.726562 39.320312 24.542969 C 39.320312 23.371094 38.398438 22.410156 37.238281 22.347656 C 37.15625 22.082031 37.015625 21.792969 36.78125 21.539062 C 36.511719 21.246094 36.011719 20.894531 35.171875 20.882812 C 34.792969 20.875 34.421875 20.972656 34.089844 21.15625 C 33.699219 20.824219 33.195312 20.628906 32.664062 20.628906 C 32.085938 20.628906 31.546875 20.851562 31.144531 21.238281 C 30.851562 21.09375 30.53125 21.019531 30.195312 21.019531 C 29.179688 21.019531 28.324219 21.714844 28.074219 22.652344 C 26.921875 22.71875 26.007812 23.675781 26.007812 24.84375 C 26.007812 25.222656 26.109375 25.59375 26.292969 25.917969 C 26.09375 26.257812 25.996094 26.640625 26.007812 27.027344 C 26.03125 27.671875 26.269531 28.214844 26.703125 28.601562 C 26.941406 28.816406 27.214844 28.957031 27.472656 29.046875 C 27.480469 30.167969 28.335938 31.09375 29.429688 31.214844 C 29.503906 31.457031 29.632812 31.722656 29.847656 31.964844 C 30.109375 32.265625 30.609375 32.636719 31.476562 32.691406 C 31.722656 32.707031 31.972656 32.671875 32.210938 32.589844 C 32.621094 33.078125 33.234375 33.378906 33.894531 33.378906 C 34.441406 33.378906 34.949219 33.183594 35.34375 32.832031 C 35.539062 32.886719 35.742188 32.917969 35.945312 32.917969 C 36.921875 32.917969 37.753906 32.273438 38.039062 31.390625 C 38.402344 31.316406 38.835938 31.152344 39.1875 30.800781 C 39.457031 30.53125 39.777344 30.039062 39.769531 29.246094 C 39.765625 28.941406 39.703125 28.648438 39.585938 28.382812 C 39.964844 27.980469 40.191406 27.441406 40.191406 26.871094 Z M 37.125 23.8125 C 37.527344 23.8125 37.855469 24.140625 37.855469 24.542969 C 37.855469 24.746094 37.601562 25.160156 37.574219 25.253906 C 37.324219 24.734375 36.964844 24.269531 36.515625 23.894531 C 36.632812 23.910156 37.039062 23.8125 37.125 23.8125 Z M 34.574219 22.640625 C 34.714844 22.453125 34.929688 22.339844 35.148438 22.347656 C 35.535156 22.351562 35.660156 22.484375 35.703125 22.53125 C 35.871094 22.710938 35.894531 23.023438 35.890625 23.125 C 35.882812 23.261719 35.914062 23.394531 35.976562 23.511719 C 35.746094 23.375 35.503906 23.261719 35.242188 23.167969 C 34.925781 23.054688 34.558594 22.96875 34.164062 22.910156 C 34.324219 22.871094 34.472656 22.777344 34.574219 22.640625 Z M 31.988281 22.546875 C 32.101562 22.273438 32.367188 22.09375 32.664062 22.09375 C 32.945312 22.09375 33.207031 22.257812 33.328125 22.515625 C 33.398438 22.664062 33.515625 22.785156 33.660156 22.855469 C 33.425781 22.835938 33.183594 22.824219 32.941406 22.824219 C 32.511719 22.824219 32.074219 22.855469 31.648438 22.917969 C 31.796875 22.839844 31.921875 22.710938 31.988281 22.546875 Z M 30.195312 22.484375 C 30.410156 22.457031 30.613281 22.578125 30.753906 22.742188 C 30.871094 22.878906 31.03125 22.964844 31.203125 22.992188 C 30.578125 23.113281 29.988281 23.304688 29.484375 23.570312 C 29.492188 23.5 29.25 22.613281 30.195312 22.484375 Z M 28.300781 27.730469 C 28.054688 27.726562 27.496094 27.648438 27.472656 26.980469 C 27.464844 26.71875 27.636719 26.53125 27.710938 26.464844 C 27.863281 26.324219 27.949219 26.128906 27.949219 25.925781 C 27.949219 25.71875 27.863281 25.523438 27.710938 25.382812 C 27.558594 25.242188 27.472656 25.050781 27.472656 24.84375 C 27.472656 24.441406 27.800781 24.113281 28.207031 24.113281 C 28.300781 24.113281 28.570312 24.195312 28.617188 24.203125 C 28.386719 24.441406 28.207031 24.710938 28.101562 25.015625 C 27.792969 25.886719 28.105469 26.90625 28.730469 27.855469 C 28.605469 27.773438 28.457031 27.726562 28.300781 27.730469 Z M 32.003906 31.042969 C 31.921875 31.117188 31.753906 31.242188 31.566406 31.230469 C 31.273438 31.210938 31.066406 31.132812 30.945312 30.996094 C 30.773438 30.800781 30.789062 30.496094 30.789062 30.492188 C 30.789062 30.484375 30.808594 30.132812 30.515625 29.867188 C 30.339844 29.710938 30.089844 29.671875 29.863281 29.734375 C 29.796875 29.753906 29.734375 29.761719 29.671875 29.761719 C 29.265625 29.761719 28.9375 29.433594 28.9375 29.03125 C 28.9375 28.933594 28.957031 28.835938 28.996094 28.746094 C 29.058594 28.59375 29.066406 28.429688 29.027344 28.273438 C 29.914062 29.433594 31.21875 30.441406 32.332031 30.882812 C 32.222656 30.90625 32.109375 30.953125 32.003906 31.042969 Z M 30.335938 27.566406 C 29.515625 26.574219 29.363281 25.835938 29.480469 25.503906 C 29.6875 24.921875 31.070312 24.289062 32.941406 24.289062 C 33.628906 24.289062 34.289062 24.386719 34.753906 24.550781 C 36.136719 25.039062 36.863281 26.5625 36.375 27.945312 C 36 29.003906 34.992188 29.714844 33.867188 29.714844 C 33.566406 29.714844 33.265625 29.664062 32.980469 29.5625 C 32.136719 29.265625 31.074219 28.460938 30.335938 27.566406 Z M 38.292969 27.539062 C 38.070312 27.636719 37.914062 27.839844 37.871094 28.078125 C 37.828125 28.316406 37.910156 28.5625 38.082031 28.730469 C 38.222656 28.867188 38.300781 29.058594 38.304688 29.261719 C 38.308594 29.605469 38.191406 29.722656 38.152344 29.761719 C 37.96875 29.945312 37.609375 29.988281 37.429688 29.988281 C 37.230469 29.984375 37.035156 30.058594 36.894531 30.199219 C 36.757812 30.335938 36.675781 30.523438 36.675781 30.71875 C 36.675781 31.125 36.347656 31.453125 35.945312 31.453125 C 35.800781 31.453125 35.664062 31.410156 35.546875 31.332031 C 35.378906 31.222656 35.175781 31.1875 34.984375 31.230469 C 34.789062 31.273438 34.621094 31.394531 34.519531 31.5625 C 34.382812 31.78125 34.152344 31.914062 33.894531 31.914062 C 33.570312 31.914062 33.285156 31.695312 33.191406 31.386719 C 33.160156 31.277344 33.101562 31.175781 33.023438 31.09375 C 33.304688 31.152344 33.585938 31.179688 33.867188 31.179688 C 35.566406 31.179688 37.15625 30.125 37.753906 28.433594 C 38.039062 27.628906 38.058594 26.800781 37.863281 26.03125 C 37.945312 26.089844 38.683594 26.164062 38.726562 26.871094 C 38.742188 27.15625 38.554688 27.417969 38.292969 27.539062 Z M 38.292969 27.539062 "/>
<path style=" stroke:none;fill-rule:nonzero;fill:rgb(0%,0%,0%);fill-opacity:1;" d="M 25 3.835938 C 23.636719 3.835938 22.527344 4.945312 22.527344 6.308594 C 22.527344 6.929688 22.757812 8.042969 23.078125 8.957031 C 23.589844 10.421875 24.21875 11.136719 25 11.136719 C 25.78125 11.136719 26.410156 10.421875 26.921875 8.957031 C 27.242188 8.042969 27.472656 6.929688 27.472656 6.308594 C 27.472656 4.945312 26.363281 3.835938 25 3.835938 Z M 25 9.597656 C 24.566406 9.097656 23.992188 7.148438 23.992188 6.308594 C 23.992188 5.75 24.445312 5.300781 25 5.300781 C 25.554688 5.300781 26.007812 5.75 26.007812 6.308594 C 26.007812 7.148438 25.433594 9.097656 25 9.597656 Z M 25 9.597656 "/>
<path style=" stroke:none;fill-rule:nonzero;fill:rgb(0%,0%,0%);fill-opacity:1;" d="M 20.089844 12.796875 C 19.640625 12.191406 19.023438 11.554688 18.621094 11.28125 C 18.167969 10.972656 17.621094 10.863281 17.085938 10.964844 C 16.546875 11.066406 16.078125 11.375 15.773438 11.828125 C 15.136719 12.761719 15.378906 14.042969 16.316406 14.675781 C 16.71875 14.949219 17.539062 15.289062 18.265625 15.484375 C 18.492188 15.542969 18.949219 15.667969 19.417969 15.667969 C 19.882812 15.667969 20.359375 15.546875 20.640625 15.132812 C 21.207031 14.300781 20.367188 13.167969 20.089844 12.796875 Z M 17.140625 13.464844 C 16.871094 13.285156 16.824219 12.933594 16.984375 12.648438 C 17.101562 12.4375 17.460938 12.265625 17.800781 12.496094 C 18.28125 12.820312 18.980469 13.683594 19.253906 14.191406 C 18.679688 14.121094 17.621094 13.792969 17.140625 13.464844 Z M 17.140625 13.464844 "/>
<path style=" stroke:none;fill-rule:nonzero;fill:rgb(0%,0%,0%);fill-opacity:1;" d="M 34.226562 11.828125 C 33.921875 11.375 33.453125 11.066406 32.917969 10.964844 C 32.378906 10.863281 31.832031 10.976562 31.378906 11.28125 C 30.976562 11.554688 30.359375 12.191406 29.910156 12.796875 C 29.632812 13.167969 28.792969 14.300781 29.359375 15.132812 C 29.640625 15.546875 30.117188 15.667969 30.582031 15.667969 C 31.050781 15.667969 31.507812 15.542969 31.734375 15.484375 C 32.460938 15.289062 33.28125 14.949219 33.683594 14.675781 C 34.621094 14.042969 34.863281 12.761719 34.226562 11.828125 Z M 32.859375 13.464844 C 32.378906 13.792969 31.320312 14.121094 30.746094 14.191406 C 31.019531 13.683594 31.71875 12.820312 32.199219 12.496094 C 32.578125 12.222656 32.929688 12.519531 33.015625 12.648438 C 33.199219 12.917969 33.128906 13.285156 32.859375 13.464844 Z M 32.859375 13.464844 "/>
<path style=" stroke:none;fill-rule:nonzero;fill:rgb(0%,0%,0%);fill-opacity:1;" d="M 42.285156 24.1875 C 42.941406 22.277344 43.273438 20.277344 43.269531 18.242188 C 43.265625 15.132812 42.453125 12.054688 40.921875 9.34375 C 39.4375 6.710938 37.304688 4.464844 34.757812 2.839844 C 34.414062 2.625 33.960938 2.722656 33.746094 3.066406 C 33.527344 3.40625 33.628906 3.859375 33.96875 4.078125 C 34.992188 4.726562 35.941406 5.488281 36.800781 6.335938 C 36.59375 6.429688 36.394531 6.550781 36.203125 6.707031 C 35.367188 7.402344 35 8.554688 35.316406 9.503906 C 35.40625 9.773438 35.578125 10.121094 35.917969 10.441406 C 35.488281 10.765625 35.199219 11.207031 35.078125 11.730469 C 34.804688 12.914062 35.492188 14.265625 36.613281 14.742188 C 37.109375 14.949219 37.632812 14.976562 38.152344 14.816406 C 38.199219 15.195312 38.324219 15.488281 38.441406 15.691406 C 39.441406 17.40625 41.457031 16.769531 41.726562 16.652344 C 41.777344 17.179688 41.804688 17.710938 41.804688 18.242188 C 41.804688 20.117188 41.503906 21.957031 40.902344 23.714844 C 40.582031 24.640625 40.644531 25.652344 41.066406 26.492188 C 41.554688 27.46875 41.804688 28.519531 41.804688 29.621094 C 41.804688 32.265625 40.894531 34.191406 39.105469 35.347656 C 37.550781 36.351562 35.6875 36.546875 34.710938 36.574219 C 33.789062 36.601562 32.988281 37.183594 32.671875 38.058594 L 32.433594 38.71875 C 32.25 39.230469 31.761719 39.574219 31.214844 39.574219 L 30.429688 39.574219 L 30.429688 38.984375 C 30.429688 38.578125 30.101562 38.25 29.699219 38.25 C 29.292969 38.25 28.964844 38.578125 28.964844 38.984375 L 28.964844 39.574219 L 27.296875 39.574219 L 27.296875 38.984375 C 27.296875 38.578125 26.96875 38.25 26.566406 38.25 C 26.160156 38.25 25.832031 38.578125 25.832031 38.984375 L 25.832031 39.574219 L 24.167969 39.574219 L 24.167969 38.984375 C 24.167969 38.578125 23.839844 38.25 23.433594 38.25 C 23.03125 38.25 22.703125 38.578125 22.703125 38.984375 L 22.703125 39.574219 L 21.035156 39.574219 L 21.035156 38.984375 C 21.035156 38.578125 20.707031 38.25 20.300781 38.25 C 19.898438 38.25 19.570312 38.578125 19.570312 38.984375 L 19.570312 39.574219 L 18.785156 39.574219 C 18.238281 39.574219 17.75 39.230469 17.566406 38.71875 L 17.328125 38.058594 C 17.011719 37.183594 16.210938 36.601562 15.289062 36.574219 C 14.3125 36.546875 12.449219 36.351562 10.894531 35.347656 C 9.105469 34.191406 8.195312 32.265625 8.195312 29.621094 C 8.195312 28.519531 8.445312 27.46875 8.933594 26.492188 C 9.355469 25.652344 9.417969 24.636719 9.101562 23.714844 C 8.496094 21.957031 8.195312 20.117188 8.195312 18.242188 C 8.199219 16.621094 8.433594 15.035156 8.882812 13.519531 C 8.976562 13.527344 9.507812 13.589844 10.046875 13.398438 C 10.34375 13.921875 10.460938 14.390625 10.378906 14.734375 C 10.328125 14.949219 10.199219 15.121094 9.992188 15.238281 C 9.644531 15.445312 9.523438 15.894531 9.730469 16.242188 C 9.867188 16.476562 10.324219 16.710938 10.730469 16.503906 C 11.300781 16.21875 11.660156 15.675781 11.804688 15.074219 C 11.824219 14.988281 11.839844 14.902344 11.851562 14.816406 C 12.367188 14.976562 12.894531 14.949219 13.386719 14.738281 C 14.507812 14.265625 15.195312 12.914062 14.921875 11.730469 C 14.800781 11.207031 14.511719 10.765625 14.082031 10.441406 C 14.421875 10.121094 14.597656 9.773438 14.683594 9.503906 C 15 8.554688 14.632812 7.402344 13.796875 6.707031 C 13.609375 6.550781 13.40625 6.429688 13.199219 6.335938 C 16.375 3.195312 20.558594 1.464844 25 1.464844 C 27.179688 1.464844 29.304688 1.878906 31.3125 2.699219 C 31.683594 2.855469 32.113281 2.675781 32.265625 2.300781 C 32.417969 1.925781 32.238281 1.496094 31.863281 1.34375 C 29.679688 0.453125 27.371094 0 25 0 C 20.132812 0 15.550781 1.910156 12.089844 5.375 C 8.640625 8.828125 6.738281 13.398438 6.730469 18.242188 C 6.726562 20.277344 7.058594 22.277344 7.714844 24.1875 C 7.902344 24.742188 7.871094 25.34375 7.625 25.835938 C 7.03125 27.015625 6.730469 28.292969 6.730469 29.621094 C 6.730469 32.796875 7.863281 35.136719 10.097656 36.578125 C 11.953125 37.773438 14.121094 38.007812 15.246094 38.039062 C 15.558594 38.046875 15.839844 38.253906 15.949219 38.554688 L 16.1875 39.214844 C 16.582031 40.304688 17.625 41.039062 18.785156 41.039062 L 19.570312 41.039062 L 19.570312 41.628906 C 19.570312 42.035156 19.898438 42.363281 20.300781 42.363281 C 20.707031 42.363281 21.035156 42.035156 21.035156 41.628906 L 21.035156 41.039062 L 22.703125 41.039062 L 22.703125 41.628906 C 22.703125 42.035156 23.03125 42.363281 23.433594 42.363281 C 23.839844 42.363281 24.167969 42.035156 24.167969 41.628906 L 24.167969 41.039062 L 25.832031 41.039062 L 25.832031 41.628906 C 25.832031 42.035156 26.160156 42.363281 26.566406 42.363281 C 26.96875 42.363281 27.296875 42.035156 27.296875 41.628906 L 27.296875 41.039062 L 28.964844 41.039062 L 28.964844 41.628906 C 28.964844 42.035156 29.292969 42.363281 29.699219 42.363281 C 30.101562 42.363281 30.429688 42.035156 30.429688 41.628906 L 30.429688 41.039062 L 31.214844 41.039062 C 32.375 41.039062 33.417969 40.304688 33.8125 39.214844 L 34.050781 38.554688 C 34.160156 38.253906 34.441406 38.046875 34.753906 38.039062 C 34.96875 38.035156 35.21875 38.019531 35.5 37.992188 L 35.5 40.964844 C 35.5 44.882812 32.511719 48.113281 28.695312 48.496094 C 28.535156 48.246094 28.355469 48.015625 28.152344 47.808594 C 28.335938 47.894531 28.546875 47.9375 28.792969 47.9375 C 29.117188 47.9375 29.492188 47.863281 29.917969 47.71875 C 30.539062 47.503906 31.214844 47.148438 31.5625 46.855469 C 31.957031 46.519531 32.199219 46.046875 32.242188 45.53125 C 32.28125 45.011719 32.121094 44.507812 31.785156 44.113281 C 31.089844 43.292969 29.859375 43.191406 29.042969 43.886719 C 28.695312 44.179688 28.234375 44.789062 27.925781 45.367188 C 27.460938 46.226562 27.378906 46.898438 27.667969 47.375 C 26.921875 46.800781 25.992188 46.472656 25 46.472656 C 24.007812 46.472656 23.078125 46.800781 22.328125 47.375 C 22.621094 46.898438 22.539062 46.226562 22.074219 45.367188 C 21.761719 44.789062 21.304688 44.179688 20.957031 43.886719 C 20.140625 43.191406 18.910156 43.292969 18.214844 44.113281 C 17.878906 44.507812 17.714844 45.011719 17.757812 45.53125 C 17.800781 46.046875 18.042969 46.519531 18.4375 46.855469 C 18.785156 47.148438 19.460938 47.503906 20.082031 47.71875 C 20.507812 47.863281 20.882812 47.9375 21.207031 47.9375 C 21.449219 47.9375 21.664062 47.894531 21.847656 47.808594 C 21.644531 48.015625 21.464844 48.246094 21.304688 48.496094 C 17.488281 48.113281 14.5 44.882812 14.5 40.964844 L 14.5 40.210938 C 14.5 39.808594 14.171875 39.480469 13.769531 39.480469 C 13.363281 39.480469 13.035156 39.808594 13.035156 40.210938 L 13.035156 40.964844 C 13.035156 45.949219 17.089844 50 22.070312 50 L 27.929688 50 C 32.910156 50 36.964844 45.949219 36.964844 40.964844 L 36.964844 37.765625 C 37.902344 37.554688 38.941406 37.195312 39.898438 36.578125 C 42.136719 35.136719 43.269531 32.796875 43.269531 29.621094 C 43.269531 28.292969 42.96875 27.015625 42.375 25.835938 C 42.128906 25.34375 42.097656 24.742188 42.285156 24.1875 Z M 37.1875 13.390625 C 36.714844 13.191406 36.390625 12.558594 36.507812 12.058594 C 36.65625 11.421875 37.496094 11.300781 38.054688 11.296875 C 38.160156 11.785156 38.390625 12.226562 38.714844 12.589844 C 38.378906 13.035156 37.789062 13.648438 37.1875 13.390625 Z M 38.128906 9.816406 C 37.355469 9.726562 36.839844 9.453125 36.707031 9.042969 C 36.582031 8.664062 36.765625 8.144531 37.140625 7.835938 C 37.335938 7.671875 37.640625 7.523438 38.007812 7.667969 C 38.285156 8.007812 38.550781 8.355469 38.800781 8.714844 C 38.496094 9.027344 38.265625 9.402344 38.128906 9.816406 Z M 39.457031 10.628906 C 39.46875 10.414062 39.527344 10.210938 39.628906 10.03125 C 39.636719 10.042969 39.640625 10.054688 39.648438 10.0625 C 40.007812 10.707031 40.328125 11.371094 40.601562 12.050781 C 39.921875 11.9375 39.417969 11.328125 39.457031 10.628906 Z M 40.746094 15.402344 C 40.300781 15.433594 39.882812 15.25 39.707031 14.949219 C 39.5 14.597656 39.589844 14.042969 39.957031 13.398438 C 40.515625 13.613281 41.019531 13.53125 41.113281 13.519531 C 41.261719 14.023438 41.386719 14.53125 41.488281 15.046875 C 41.273438 15.332031 40.910156 15.390625 40.746094 15.402344 Z M 12.8125 13.390625 C 12.210938 13.648438 11.621094 13.035156 11.285156 12.589844 C 11.609375 12.226562 11.839844 11.785156 11.945312 11.296875 C 12.503906 11.300781 13.347656 11.421875 13.492188 12.058594 C 13.609375 12.558594 13.285156 13.191406 12.8125 13.390625 Z M 11.984375 7.671875 C 12.355469 7.519531 12.664062 7.671875 12.859375 7.835938 C 13.234375 8.144531 13.417969 8.664062 13.292969 9.042969 C 13.160156 9.453125 12.644531 9.726562 11.871094 9.816406 C 11.734375 9.398438 11.503906 9.023438 11.199219 8.710938 C 11.445312 8.355469 11.707031 8.007812 11.984375 7.671875 Z M 10.367188 10.027344 C 10.46875 10.207031 10.53125 10.410156 10.542969 10.628906 C 10.582031 11.332031 10.074219 11.941406 9.390625 12.050781 C 9.671875 11.355469 9.996094 10.679688 10.367188 10.027344 Z M 29.992188 45.003906 C 30.082031 44.925781 30.425781 44.75 30.667969 45.058594 C 30.910156 45.371094 30.710938 45.65625 30.613281 45.738281 C 30.289062 46.011719 29.496094 46.355469 29.03125 46.449219 C 29.203125 46.003906 29.667969 45.277344 29.992188 45.003906 Z M 19.386719 45.738281 C 19.289062 45.65625 19.082031 45.378906 19.332031 45.058594 C 19.582031 44.742188 19.917969 44.925781 20.007812 45.003906 C 20.332031 45.277344 20.796875 46.003906 20.96875 46.449219 C 20.503906 46.355469 19.710938 46.011719 19.386719 45.738281 Z M 23.226562 48.535156 C 23.726562 48.15625 24.34375 47.9375 25 47.9375 C 25.65625 47.9375 26.273438 48.15625 26.773438 48.535156 Z M 23.226562 48.535156 "/>
<path style=" stroke:none;fill-rule:nonzero;fill:rgb(0%,0%,0%);fill-opacity:1;" d="M 25.730469 44.785156 C 25.730469 45.1875 25.402344 45.515625 25 45.515625 C 24.59375 45.515625 24.265625 45.1875 24.265625 44.785156 C 24.265625 44.378906 24.59375 44.050781 25 44.050781 C 25.402344 44.050781 25.730469 44.378906 25.730469 44.785156 Z M 25.730469 44.785156 "/>
<path style=" stroke:none;fill-rule:nonzero;fill:rgb(0%,0%,0%);fill-opacity:1;" d="M 27.382812 15.914062 L 25.734375 15.914062 L 25.734375 13.933594 C 25.734375 13.527344 25.40625 13.199219 25 13.199219 C 24.59375 13.199219 24.265625 13.527344 24.265625 13.933594 L 24.265625 15.914062 L 22.617188 15.914062 C 22.214844 15.914062 21.886719 16.242188 21.886719 16.648438 C 21.886719 17.050781 22.214844 17.378906 22.617188 17.378906 L 24.265625 17.378906 L 24.265625 21.667969 C 24.265625 22.074219 24.59375 22.402344 25 22.402344 C 25.40625 22.402344 25.734375 22.074219 25.734375 21.667969 L 25.734375 17.378906 L 27.382812 17.378906 C 27.785156 17.378906 28.113281 17.050781 28.113281 16.648438 C 28.113281 16.242188 27.785156 15.914062 27.382812 15.914062 Z M 27.382812 15.914062 "/>
<path style=" stroke:none;fill-rule:nonzero;fill:rgb(0%,0%,0%);fill-opacity:1;" d="M 22.574219 11.246094 L 21.003906 8.949219 C 20.773438 8.613281 20.316406 8.53125 19.984375 8.757812 C 19.652344 8.988281 19.566406 9.441406 19.792969 9.777344 L 21.367188 12.074219 C 21.753906 12.609375 22.257812 12.351562 22.386719 12.265625 C 22.71875 12.035156 22.804688 11.582031 22.574219 11.246094 Z M 22.574219 11.246094 "/>
<path style=" stroke:none;fill-rule:nonzero;fill:rgb(0%,0%,0%);fill-opacity:1;" d="M 30.015625 8.757812 C 29.683594 8.53125 29.226562 8.613281 28.996094 8.949219 L 27.425781 11.246094 C 27.195312 11.578125 27.28125 12.035156 27.613281 12.265625 C 27.742188 12.351562 28.289062 12.546875 28.632812 12.074219 L 30.207031 9.777344 C 30.433594 9.441406 30.347656 8.988281 30.015625 8.757812 Z M 30.015625 8.757812 "/>
<path style=" stroke:none;fill-rule:nonzero;fill:rgb(0%,0%,0%);fill-opacity:1;" d="M 19.492188 16.773438 L 18.1875 16.773438 C 17.78125 16.773438 17.453125 17.101562 17.453125 17.507812 C 17.453125 17.910156 17.78125 18.238281 18.1875 18.238281 L 19.492188 18.238281 C 19.894531 18.238281 20.222656 17.910156 20.222656 17.507812 C 20.222656 17.101562 19.894531 16.773438 19.492188 16.773438 Z M 19.492188 16.773438 "/>
<path style=" stroke:none;fill-rule:nonzero;fill:rgb(0%,0%,0%);fill-opacity:1;" d="M 31.8125 16.773438 L 30.507812 16.773438 C 30.105469 16.773438 29.777344 17.101562 29.777344 17.507812 C 29.777344 17.910156 30.105469 18.238281 30.507812 18.238281 L 31.8125 18.238281 C 32.21875 18.238281 32.546875 17.910156 32.546875 17.507812 C 32.546875 17.101562 32.21875 16.773438 31.8125 16.773438 Z M 31.8125 16.773438 "/>
</g>
</svg>
