<?xml version="1.0" encoding="UTF-8"?>
<svg xmlns="http://www.w3.org/2000/svg" xmlns:xlink="http://www.w3.org/1999/xlink" width="40pt" height="40pt" viewBox="0 0 40 40" version="1.1">
<g id="surface1">
<path style=" stroke:none;fill-rule:evenodd;fill:rgb(0%,0%,0%);fill-opacity:1;" d="M 0 0 L 0 40 L 40 40 L 40 0 Z M 33.828125 8.851562 L 29.128906 31.457031 C 29.019531 31.988281 28.394531 32.230469 27.953125 31.910156 L 21.535156 27.253906 C 21.148438 26.96875 20.617188 26.984375 20.242188 27.289062 L 16.6875 30.1875 C 16.273438 30.527344 15.652344 30.339844 15.492188 29.828125 L 13.023438 21.886719 L 6.644531 19.503906 C 5.996094 19.261719 5.988281 18.347656 6.636719 18.097656 L 32.824219 7.996094 C 33.378906 7.78125 33.949219 8.269531 33.828125 8.851562 Z M 33.828125 8.851562 "/>
<path style=" stroke:none;fill-rule:evenodd;fill:rgb(0%,0%,0%);fill-opacity:1;" d="M 27.566406 12.9375 L 15.09375 20.621094 C 14.617188 20.914062 14.394531 21.492188 14.546875 22.03125 L 15.894531 26.769531 C 15.992188 27.105469 16.476562 27.070312 16.523438 26.722656 L 16.875 24.125 C 16.941406 23.636719 17.175781 23.1875 17.535156 22.847656 L 27.828125 13.28125 C 28.019531 13.105469 27.789062 12.800781 27.566406 12.9375 Z M 27.566406 12.9375 "/>
</g>
</svg>
